PathFileType	4	(X/Y/Z)	G:\GRF\jawan data\CompiledGRF\03. Mohit Kumar\0231~ac~Walking 05_markers.trc
DataRate	CameraRate	NumFrames	NumMarkers	Units	OrigDataRate	OrigDataStartFrame	OrigNumFrames
100.000000	100.000000	28	18	mm	100.000000	231	926
Frame#	Time	c7			r should			l should			sacrum			r asis			r bar 1			r knee 1			r bar 2			r mall			r heel			r met			l asis			l bar 1			l knee 1			l bar 2			l mall			l heel			l met			
		X1	Y1	Z1	X2	Y2	Z2	X3	Y3	Z3	X4	Y4	Z4	X5	Y5	Z5	X6	Y6	Z6	X7	Y7	Z7	X8	Y8	Z8	X9	Y9	Z9	X10	Y10	Z10	X11	Y11	Z11	X12	Y12	Z12	X13	Y13	Z13	X14	Y14	Z14	X15	Y15	Z15	X16	Y16	Z16	X17	Y17	Z17	X18	Y18	Z18	

232	2.31	nan	nan	nan	nan	nan	nan	nan	nan	nan	nan	nan	nan	nan	nan	nan	nan	nan	nan	nan	nan	nan	nan	nan	nan	nan	nan	nan	nan	nan	nan	nan	nan	nan	nan	nan	nan	nan	nan	nan	nan	nan	nan	nan	nan	nan	nan	nan	nan	nan	nan	nan	nan	nan	nan	
233	2.32	nan	nan	nan	nan	nan	nan	nan	nan	nan	nan	nan	nan	nan	nan	nan	nan	nan	nan	nan	nan	nan	nan	nan	nan	nan	nan	nan	nan	nan	nan	nan	nan	nan	nan	nan	nan	nan	nan	nan	nan	nan	nan	nan	nan	nan	nan	nan	nan	nan	nan	nan	nan	nan	nan	
234	2.33	nan	nan	nan	nan	nan	nan	nan	nan	nan	nan	nan	nan	nan	nan	nan	nan	nan	nan	nan	nan	nan	nan	nan	nan	nan	nan	nan	nan	nan	nan	nan	nan	nan	nan	nan	nan	nan	nan	nan	nan	nan	nan	nan	nan	nan	nan	nan	nan	nan	nan	nan	nan	nan	nan	
235	2.34	nan	nan	nan	nan	nan	nan	nan	nan	nan	nan	nan	nan	nan	nan	nan	nan	nan	nan	nan	nan	nan	nan	nan	nan	nan	nan	nan	nan	nan	nan	nan	nan	nan	nan	nan	nan	nan	nan	nan	nan	nan	nan	nan	nan	nan	nan	nan	nan	nan	nan	nan	nan	nan	nan	
236	2.35	nan	nan	nan	nan	nan	nan	nan	nan	nan	nan	nan	nan	nan	nan	nan	nan	nan	nan	nan	nan	nan	nan	nan	nan	nan	nan	nan	nan	nan	nan	nan	nan	nan	nan	nan	nan	nan	nan	nan	nan	nan	nan	nan	nan	nan	nan	nan	nan	nan	nan	nan	nan	nan	nan	
237	2.36	nan	nan	nan	nan	nan	nan	nan	nan	nan	nan	nan	nan	nan	nan	nan	nan	nan	nan	nan	nan	nan	nan	nan	nan	nan	nan	nan	nan	nan	nan	nan	nan	nan	nan	nan	nan	nan	nan	nan	nan	nan	nan	nan	nan	nan	nan	nan	nan	nan	nan	nan	nan	nan	nan	
238	2.37	nan	nan	nan	nan	nan	nan	nan	nan	nan	nan	nan	nan	nan	nan	nan	nan	nan	nan	nan	nan	nan	nan	nan	nan	nan	nan	nan	nan	nan	nan	nan	nan	nan	nan	nan	nan	nan	nan	nan	nan	nan	nan	nan	nan	nan	nan	nan	nan	nan	nan	nan	nan	nan	nan	
239	2.38	nan	nan	nan	nan	nan	nan	nan	nan	nan	nan	nan	nan	nan	nan	nan	nan	nan	nan	nan	nan	nan	nan	nan	nan	nan	nan	nan	nan	nan	nan	nan	nan	nan	nan	nan	nan	nan	nan	nan	3115.645263671875	491.7515869140625	374.4932861328125	nan	nan	nan	nan	nan	nan	nan	nan	nan	nan	nan	nan	
240	2.39	nan	nan	nan	nan	nan	nan	nan	nan	nan	nan	nan	nan	nan	nan	nan	nan	nan	nan	nan	nan	nan	nan	nan	nan	nan	nan	nan	nan	nan	nan	nan	nan	nan	nan	nan	nan	nan	nan	nan	3100.458740234375	495.7980651855469	374.6868286132813	nan	nan	nan	nan	nan	nan	nan	nan	nan	nan	nan	nan	
241	2.4	nan	nan	nan	nan	nan	nan	nan	nan	nan	nan	nan	nan	nan	nan	nan	nan	nan	nan	nan	nan	nan	nan	nan	nan	nan	nan	nan	nan	nan	nan	nan	nan	nan	nan	nan	nan	3119.4326171875	587.776123046875	417.3549499511719	3084.017578125	498.4990539550781	373.9085083007813	nan	nan	nan	nan	nan	nan	nan	nan	nan	nan	nan	nan	
242	2.41	nan	nan	nan	nan	nan	nan	nan	nan	nan	nan	nan	nan	nan	nan	nan	nan	nan	nan	nan	nan	nan	nan	nan	nan	nan	nan	nan	nan	nan	nan	nan	nan	nan	nan	nan	nan	3103.631103515625	590.4590454101563	417.3411865234375	3066.96533203125	500.4530029296875	372.5477905273438	nan	nan	nan	nan	nan	nan	nan	nan	nan	nan	nan	nan	
243	2.42	nan	nan	nan	nan	nan	nan	nan	nan	nan	nan	nan	nan	nan	nan	nan	nan	nan	nan	nan	nan	nan	nan	nan	nan	nan	nan	nan	nan	nan	nan	nan	nan	nan	nan	nan	nan	3088.107177734375	593.198486328125	417.4142150878906	3051.314697265625	503.4276733398438	371.8441162109375	nan	nan	nan	nan	nan	nan	nan	nan	nan	nan	nan	nan	
244	2.43	nan	nan	nan	3119.75048828125	1436.881225585938	22.07834053039551	nan	nan	nan	nan	nan	nan	nan	nan	nan	nan	nan	nan	nan	nan	nan	nan	nan	nan	nan	nan	nan	nan	nan	nan	nan	nan	nan	nan	nan	nan	3072.95361328125	595.9269409179688	417.55078125	3036.228271484375	506.5101928710938	371.3888549804688	nan	nan	nan	nan	nan	nan	nan	nan	nan	nan	nan	nan	
245	2.44	nan	nan	nan	3112.23046875	1437.495727539063	22.00489044189453	nan	nan	nan	nan	nan	nan	nan	nan	nan	nan	nan	nan	nan	nan	nan	nan	nan	nan	nan	nan	nan	nan	nan	nan	nan	nan	nan	nan	nan	nan	3058.216064453125	598.4762573242188	417.6962280273438	3021.626708984375	509.5843811035156	370.95703125	nan	nan	nan	nan	nan	nan	nan	nan	nan	nan	nan	nan	
246	2.45	nan	nan	nan	3104.554931640625	1438.003173828125	21.85606956481934	nan	nan	nan	nan	nan	nan	nan	nan	nan	nan	nan	nan	nan	nan	nan	nan	nan	nan	nan	nan	nan	nan	nan	nan	nan	nan	nan	nan	nan	nan	3043.943359375	600.786376953125	417.832275390625	3007.108642578125	512.130859375	370.4160461425781	nan	nan	nan	nan	nan	nan	nan	nan	nan	nan	nan	nan	
247	2.46	nan	nan	nan	3098.65625	1439.252563476563	22.04582023620605	3116.8330078125	1453.782592773438	367.0704956054688	nan	nan	nan	nan	nan	nan	nan	nan	nan	nan	nan	nan	nan	nan	nan	nan	nan	nan	nan	nan	nan	nan	nan	nan	nan	nan	nan	3030.15087890625	602.804443359375	417.8904724121094	2993.001708984375	514.2445678710938	369.4705200195313	nan	nan	nan	nan	nan	nan	nan	nan	nan	nan	nan	nan	
248	2.47	nan	nan	nan	3092.79052734375	1440.444580078125	22.40650749206543	3109.85986328125	1453.483520507813	366.8984375	nan	nan	nan	nan	nan	nan	nan	nan	nan	nan	nan	nan	nan	nan	nan	nan	nan	nan	nan	nan	nan	nan	nan	nan	nan	nan	nan	3017.113037109375	604.7805786132813	417.9496765136719	2979.269287109375	516.1962280273438	368.6397094726563	nan	nan	nan	nan	nan	nan	nan	nan	nan	nan	nan	nan	
249	2.48	nan	nan	nan	3081.321533203125	1438.8564453125	22.04508781433105	3104.334716796875	1453.024658203125	366.3873291015625	nan	nan	nan	nan	nan	nan	nan	nan	nan	nan	nan	nan	nan	nan	nan	nan	nan	nan	nan	nan	nan	nan	nan	nan	nan	nan	nan	3004.541259765625	606.3304443359375	417.8845825195313	2965.749755859375	518.6510009765625	368.8784484863281	nan	nan	nan	nan	nan	nan	nan	nan	nan	nan	nan	nan	
250	2.49	nan	nan	nan	3072.3544921875	1438.348022460938	21.91061210632324	3098.78564453125	1452.328247070313	365.9835510253906	nan	nan	nan	nan	nan	nan	nan	nan	nan	nan	nan	nan	nan	nan	nan	nan	nan	nan	nan	nan	nan	nan	nan	nan	nan	nan	nan	2996.084228515625	606.780029296875	417.7389526367188	2953.09765625	520.6869506835938	368.7044982910156	nan	nan	nan	nan	nan	nan	nan	nan	nan	nan	nan	nan	
251	2.5	nan	nan	nan	3064.312255859375	1438.136962890625	21.77299308776855	3090.3779296875	1451.38720703125	366.4964294433594	nan	nan	nan	3048.98828125	1003.96630859375	78.62993621826172	nan	nan	nan	nan	nan	nan	nan	nan	nan	nan	nan	nan	nan	nan	nan	nan	nan	nan	nan	nan	nan	nan	nan	nan	2941.540771484375	522.7791137695313	368.4378967285156	nan	nan	nan	nan	nan	nan	nan	nan	nan	nan	nan	nan	
252	2.51	nan	nan	nan	3056.57666015625	1437.941040039063	21.83580780029297	3084.966552734375	1450.605834960938	366.7226257324219	nan	nan	nan	3042.36474609375	1003.302917480469	78.86447906494141	nan	nan	nan	nan	nan	nan	nan	nan	nan	nan	nan	nan	nan	nan	nan	nan	nan	nan	nan	nan	nan	nan	nan	nan	2930.635986328125	525.2736206054688	369.2494506835938	nan	nan	nan	nan	nan	nan	nan	nan	nan	nan	nan	nan	
253	2.52	nan	nan	nan	3050.487548828125	1438.3896484375	22.39844512939453	3078.0400390625	1449.590942382813	367.0548706054688	nan	nan	nan	3036.137939453125	1002.616149902344	78.58079528808594	nan	nan	nan	nan	nan	nan	nan	nan	nan	nan	nan	nan	nan	nan	nan	nan	nan	nan	nan	nan	nan	nan	nan	nan	2920.4638671875	527.381103515625	369.7644348144531	nan	nan	nan	nan	nan	nan	nan	nan	nan	nan	nan	nan	
254	2.53	nan	nan	nan	3044.05078125	1438.583618164063	23.13507843017578	3070.30908203125	1448.2333984375	367.3169555664063	nan	nan	nan	3029.180908203125	1001.415466308594	78.66613006591797	nan	nan	nan	nan	nan	nan	nan	nan	nan	nan	nan	nan	nan	nan	nan	nan	nan	nan	nan	nan	nan	nan	nan	nan	2910.357177734375	528.8294677734375	370.0657958984375	nan	nan	nan	nan	nan	nan	nan	nan	nan	nan	nan	nan	
255	2.54	nan	nan	nan	3032.3125	1436.251098632813	23.12986373901367	3062.537841796875	1446.914916992188	367.7544250488281	nan	nan	nan	3022.36279296875	1000.482299804688	78.55634307861328	nan	nan	nan	nan	nan	nan	nan	nan	nan	nan	nan	nan	nan	nan	nan	nan	nan	nan	3028.1875	1007.427551269531	326.84814453125	2944.463134765625	612.8575439453125	419.7346801757813	2901.469970703125	530.7112426757813	370.7139587402344	nan	nan	nan	nan	nan	nan	nan	nan	nan	nan	nan	nan	
256	2.55	nan	nan	nan	3023.66455078125	1435.1806640625	23.43278503417969	3054.440185546875	1445.550537109375	368.2961730957031	nan	nan	nan	3015.58642578125	999.5069580078125	78.46807098388672	nan	nan	nan	nan	nan	nan	nan	nan	nan	nan	nan	nan	nan	nan	nan	nan	nan	nan	3023.400390625	1007.147338867188	326.9592590332031	2939.233154296875	612.292724609375	419.6513671875	2893.48291015625	532.7052001953125	371.5923461914063	nan	nan	nan	nan	nan	nan	nan	nan	nan	nan	nan	nan	
257	2.56	nan	nan	nan	3017.305419921875	1435.1708984375	24.10476493835449	3046.607666015625	1444.180786132813	368.8295593261719	nan	nan	nan	3008.795654296875	998.50341796875	78.42794036865234	3118.759765625	593.1014404296875	10.71191310882568	nan	nan	nan	nan	nan	nan	nan	nan	nan	nan	nan	nan	nan	nan	nan	3019.702392578125	1006.220581054688	326.820556640625	2933.155029296875	611.5615844726563	419.5051879882813	2882.991455078125	531.9352416992188	370.9406127929688	nan	nan	nan	nan	nan	nan	nan	nan	nan	nan	nan	nan	
258	2.57	nan	nan	nan	3011.15185546875	1435.296508789063	25.29714393615723	3038.6123046875	1442.754516601563	369.1448974609375	nan	nan	nan	3001.967529296875	997.717041015625	78.5660400390625	3114.325439453125	592.7874145507813	10.83152961730957	nan	nan	nan	nan	nan	nan	nan	nan	nan	nan	nan	nan	nan	nan	nan	3016.293701171875	1004.751831054688	327.0122375488281	2926.625244140625	610.2877807617188	419.1578369140625	2874.502197265625	532.3458251953125	370.9665222167969	nan	nan	nan	2981.45849609375	92.03952789306641	347.4081420898438	nan	nan	nan	nan	nan	nan	
259	2.58	nan	nan	nan	2999.477783203125	1432.97216796875	25.61087226867676	3030.4462890625	1441.669555664063	370.2796020507813	nan	nan	nan	2994.727294921875	996.8466796875	78.98394012451172	3110.71044921875	592.8927612304688	11.20551204681396	nan	nan	nan	nan	nan	nan	nan	nan	nan	nan	nan	nan	nan	nan	nan	3007.395263671875	1004.290710449219	327.572509765625	2919.388916015625	608.2451782226563	418.697509765625	2866.626708984375	532.8045043945313	371.0541076660156	2942.16357421875	260.3346557617188	416.9548034667969	2957.11767578125	86.48707580566406	351.5077209472656	nan	nan	nan	nan	nan	nan	
